#!OML:ASF X:\für Bonn\!DataBase\2005_08_10_Bjorn_Final\c3d\bjorn.ASF
:FULLY-SPECIFIED
:DEGREES
62
root 0.188619 11.3538 3.69648 -180.21 -3.44061 177.304
lowerback 30.7472 2.2022 4.20014
upperback 14.2707 -0.252293 -0.818687
thorax -0.564204 -1.55774 -3.21965
lowerneck -20.36 -1.11409 4.34185
upperneck -2.72506 -3.34919 -0.608156
head 2.56806 -2.09912 -1.27487
rclavicle -9.93923e-015 1.55052e-014
rhumerus 84.4406 -8.90101 -55.7372
rradius 16.3665
rwrist 33.6522
rhand -12.4181 7.58064
rfingers 7.12502
rthumb 13.654 -21.9515
lclavicle -9.93923e-015 1.55052e-014
lhumerus 95.287 0.450181 69.987
lradius 7.11688
lwrist -56.1468
lhand -22.7892 -7.07368
lfingers 7.12502
lthumb 3.64664 22.8749
rfemur -73.4599 -28.6161 9.84164
rtibia 130.393
rfoot -33.8995 28.0426
rtoes -34.8479
lfemur -70.8 7.04968 -23.2557
ltibia 130.709
lfoot -32.5613 -1.97501
ltoes -35.5993
63
root 0.18661 11.1347 3.72483 -180.769 -3.50537 177.554
lowerback 31.7482 2.19198 4.55822
upperback 14.5056 -0.32361 -0.710249
thorax -0.712019 -1.65357 -3.28221
lowerneck -20.3724 -1.11397 4.3392
upperneck -2.9824 -3.37897 -0.575368
head 2.47921 -2.13059 -1.26135
rclavicle -2.06736e-014 -1.98785e-015
rhumerus 84.0421 -9.23083 -54.2732
rradius 16.569
rwrist 32.1297
rhand -12.4083 7.45613
rfingers 7.12502
rthumb 13.6635 -22.0754
lclavicle -2.06736e-014 -1.98785e-015
lhumerus 95.2653 0.631411 69.9481
lradius 7.32383
lwrist -55.9037
lhand -22.7957 -7.30649
lfingers 7.12502
lthumb 3.64037 22.6422
rfemur -74.1859 -30.9596 9.81631
rtibia 132.073
rfoot -34.278 29.0708
rtoes -34.7014
lfemur -71.4548 8.29899 -22.9166
ltibia 132.376
lfoot -32.9766 -2.71753
ltoes -35.6164
64
root 0.184686 10.9204 3.75252 -181.337 -3.54673 177.787
lowerback 33.1438 2.16516 4.89277
upperback 14.4888 -0.371878 -0.718358
thorax -1.00404 -1.74531 -3.1918
lowerneck -20.3174 -1.10553 4.27242
upperneck -3.22886 -3.37563 -0.499578
head 2.38457 -2.1409 -1.21795
rclavicle 1.19271e-015 7.15625e-015
rhumerus 83.5807 -9.5121 -52.4474
rradius 16.79
rwrist 30.2799
rhand -12.4218 7.23793
rfingers 7.12502
rthumb 13.6505 -22.2944
lclavicle 1.19271e-015 7.15625e-015
lhumerus 95.2281 0.826646 69.9349
lradius 7.48834
lwrist -55.7194
lhand -22.8441 -7.5274
lfingers 7.12502
lthumb 3.59363 22.4221
rfemur -74.8419 -33.4914 9.73146
rtibia 133.676
rfoot -34.714 30.1561
rtoes -34.6182
lfemur -72.0868 9.7435 -22.5857
ltibia 134.004
lfoot -33.424 -3.39442
ltoes -35.8
65
root 0.182508 10.7105 3.77989 -181.921 -3.58545 178.001
lowerback 34.1766 2.16703 5.17135
upperback 14.6789 -0.437499 -0.578732
thorax -1.15487 -1.84817 -3.15531
lowerneck -20.1686 -1.11041 4.1125
upperneck -3.52436 -3.36343 -0.412816
head 2.25777 -2.14634 -1.15065
rclavicle -1.55052e-014 7.55382e-015
rhumerus 83.1072 -9.70096 -50.7354
rradius 16.9903
rwrist 28.6126
rhand -12.4264 7.03651
rfingers 7.12502
rthumb 13.6461 -22.4962
lclavicle -1.55052e-014 7.55382e-015
lhumerus 95.1959 1.04077 69.9614
lradius 7.56356
lwrist -55.4534
lhand -22.9172 -7.80072
lfingers 7.12502
lthumb 3.52303 22.1499
rfemur -75.4084 -36.296 9.54511
rtibia 135.213
rfoot -35.1574 31.4025
rtoes -34.3803
lfemur -72.6659 11.3624 -22.2586
ltibia 135.582
lfoot -33.8707 -4.11704
ltoes -35.9714
66
root 0.179934 10.5071 3.8078 -182.516 -3.613 178.214
lowerback 35.2294 2.16746 5.48424
upperback 14.8679 -0.495445 -0.463797
thorax -1.30024 -1.94711 -3.16212
lowerneck -20.0636 -1.12565 3.96513
upperneck -3.77956 -3.37003 -0.279814
head 2.15331 -2.15781 -1.07386
rclavicle -5.1684e-015 1.39149e-014
rhumerus 82.6642 -9.90013 -49.4279
rradius 17.1704
rwrist 27.3624
rhand -12.392 6.86642
rfingers 7.12502
rthumb 13.6792 -22.664
lclavicle -5.1684e-015 1.39149e-014
lhumerus 95.2703 1.25677 69.9696
lradius 7.46727
lwrist -55.1699
lhand -23.0738 -8.13499
lfingers 7.12502
lthumb 3.37181 21.8181
rfemur -75.9093 -39.2741 9.29954
rtibia 136.68
rfoot -35.6853 32.6715
rtoes -34.1741
lfemur -73.2355 13.194 -21.9202
ltibia 137.111
lfoot -34.3114 -4.96317
ltoes -35.9783
67
root 0.177802 10.3081 3.83477 -183.088 -3.62776 178.391
lowerback 36.2554 2.17147 5.74028
upperback 15.0529 -0.565265 -0.353387
thorax -1.43182 -2.05523 -3.13819
lowerneck -20.0199 -1.12619 3.82112
upperneck -3.98911 -3.35967 -0.185082
head 2.07586 -2.16126 -1.01161
rclavicle 7.95139e-015 -1.35174e-014
rhumerus 82.2794 -10.0722 -48.1157
rradius 17.352
rwrist 26.0909
rhand -12.2407 6.70544
rfingers 7.12502
rthumb 13.8251 -22.8151
lclavicle 7.95139e-015 -1.35174e-014
lhumerus 95.3765 1.51981 69.9746
lradius 7.29626
lwrist -54.8542
lhand -23.3539 -8.48161
lfingers 7.12502
lthumb 3.10129 21.4756
rfemur -76.3287 -42.5717 8.89683
rtibia 138.086
rfoot -36.2777 34.1903
rtoes -33.8264
lfemur -73.8007 15.2704 -21.615
ltibia 138.595
lfoot -34.7347 -5.9465
ltoes -35.701
